<?xml version="1.0" encoding="utf-8"?>
<!-- Generator: Adobe Illustrator 22.1.0, SVG Export Plug-In . SVG Version: 6.00 Build 0)  -->
<svg version="1.1"
	 id="svg2" inkscape:version="0.91 r13725" sodipodi:docname="logo.svg" xmlns:cc="http://creativecommons.org/ns#" xmlns:dc="http://purl.org/dc/elements/1.1/" xmlns:inkscape="http://www.inkscape.org/namespaces/inkscape" xmlns:rdf="http://www.w3.org/1999/02/22-rdf-syntax-ns#" xmlns:sodipodi="http://sodipodi.sourceforge.net/DTD/sodipodi-0.dtd" xmlns:svg="http://www.w3.org/2000/svg"
	 xmlns="http://www.w3.org/2000/svg" xmlns:xlink="http://www.w3.org/1999/xlink" x="0px" y="0px" viewBox="0 0 238.7 51.4"
	 style="enable-background:new 0 0 238.7 51.4;" xml:space="preserve">
<style type="text/css">
	.st0{fill:#FFFFFF;}
</style>
<defs>
	
	
		<inkscape:perspective  id="perspective2447" inkscape:persp3d-origin="372.04721 : 350.78738 : 1" inkscape:vp_x="0 : 526.18107 : 1" inkscape:vp_y="0 : 999.99996 : 0" inkscape:vp_z="744.0944 : 526.18107 : 1" sodipodi:type="inkscape:persp3d">
		</inkscape:perspective>
</defs>
<sodipodi:namedview  bordercolor="#666666" borderopacity="1.0" fit-margin-bottom="0" fit-margin-left="0" fit-margin-right="0" fit-margin-top="0" id="base" inkscape:current-layer="layer1" inkscape:cx="6.1843165" inkscape:cy="-88.00001" inkscape:document-units="px" inkscape:guide-bbox="true" inkscape:pageopacity="0.0" inkscape:pageshadow="2" inkscape:window-height="1044" inkscape:window-maximized="0" inkscape:window-width="1340" inkscape:window-x="45" inkscape:window-y="100" inkscape:zoom="1" pagecolor="#ffffff" showgrid="false" showguides="true">
	</sodipodi:namedview>
<g id="layer1" transform="translate(-830.45019,377.64663)" inkscape:groupmode="layer" inkscape:label="Calque 1">
	<path id="path4350" inkscape:connector-curvature="0" class="st0" d="M938-326.6c-1.7-0.5-3-1.8-3.5-3.4c-0.3-1-0.3-1.3-0.3-12.2
		c0.1-10.7,0.1-11.3,0.4-12.6c0.7-3,1.9-5.3,3.8-7.2c2.5-2.5,5.5-3.6,9.4-3.6c4,0,6.9,1.1,9.5,3.5c2.8,2.7,4.3,6,4.5,10.3
		c0.2,4.3-0.9,7.3-3.7,10.2c-1.8,1.9-3.4,2.9-5.8,3.6c-3.2,0.9-7.4,0.5-10.5-1l-0.9-0.4v-3v-3l0.6,0.4c2,1.3,4.7,2.2,6.3,2.2
		c3.9,0,7.1-2.4,8-6.1c0.3-1.2,0.3-3.8,0.1-5c-0.4-1.6-1.2-3-2.3-4.1c-1.7-1.7-3.5-2.4-6.3-2.2c-1.6,0.1-1.8,0.1-2.9,0.6
		c-2.1,1-3.6,3-4.4,5.6c-0.2,0.8-0.3,2-0.3,14.3l0,13.4l-0.5,0C939-326.4,938.4-326.5,938-326.6L938-326.6z M976.1-337.7
		c-2.9-0.6-5.6-2-7.8-4.2c-2.7-2.7-4.1-5.9-4.1-9.7c0-3.3,1-6.3,3.1-8.9c1.9-2.4,4.7-4.2,7.6-4.9c2-0.5,5.1-0.5,6.9,0.1
		c1.8,0.5,2.8,1,4.3,2c1.7,1.1,3,2.4,4,3.9c1.4,2.2,2.1,4.3,2.2,7.6l0.1,1.9h-11.3h-11.3l0.1,0.5c0.3,1.6,1.5,3.5,2.8,4.5
		c1.9,1.5,4.7,2.3,6.5,2c1.8-0.3,4.4-1.9,5.8-3.6l0.5-0.6l2,1.5c2.9,2.1,2.7,1.8,2,2.9c-1.8,2.7-4.3,4.5-7.7,5.1
		C980.4-337.4,977.5-337.4,976.1-337.7L976.1-337.7z M986.1-355.2c0-0.5-1.1-2.4-1.8-3c-0.8-0.7-2.4-1.6-3.6-2
		c-1.2-0.4-3.4-0.4-4.6,0.1c-1.2,0.4-2.8,1.5-3.6,2.5c-0.6,0.7-1.7,2.4-1.7,2.6c0,0.1,3.5,0.1,7.7,0.1
		C985.4-354.9,986.1-355,986.1-355.2L986.1-355.2z M859.8-337.8c-5.7-0.9-10.2-4.9-11.5-10.2c-1.9-7.7,2.2-15.1,9.5-17.3
		c1.8-0.5,5-0.7,6.9-0.3c4.3,0.9,8,3.7,9.9,7.6c1,2,1.3,3.5,1.3,6.2c0,2.6-0.3,4.1-1.1,5.9c-1.7,3.7-5.3,6.7-9.3,7.7
		C864-337.7,861.2-337.6,859.8-337.8L859.8-337.8z M864.1-343.2c2.4-0.6,4-1.9,5.1-4.1c1-2,1.3-4,0.9-6.3c-0.6-3.2-2.9-5.8-5.8-6.6
		c-1.1-0.3-3.5-0.3-4.6,0c-3.6,1-5.9,4.3-5.9,8.5C853.6-345.8,858.5-341.8,864.1-343.2L864.1-343.2z M914.9-337.8
		c-4.4-0.7-8.5-3.5-10.5-7.4c-2.3-4.6-1.8-10.6,1.1-14.8c0.7-1,2.4-2.7,3.4-3.4c2.2-1.5,4.4-2.2,7.3-2.3c4.4-0.2,7.4,1,10.5,3.8
		c2.1,2,3.2,3.8,3.9,6.4c0.3,1,0.3,1.6,0.3,3.9c0,2.4,0,2.8-0.4,4c-0.8,2.5-1.9,4.3-3.7,6.1c-2.3,2.1-4.5,3.3-7.5,3.7
		C917.7-337.6,916.2-337.6,914.9-337.8L914.9-337.8z M919.8-343.4c2.1-0.8,3.5-2,4.5-4c1.4-2.9,1.3-6.9-0.4-9.4
		c-1.6-2.4-3.8-3.6-6.8-3.6c-3.9,0-6.5,1.8-7.8,5.5c-0.4,1.2-0.5,1.5-0.5,3.2c0,1.6,0.1,2.1,0.4,3.1c1.2,3.7,4.2,5.8,8.2,5.6
		C918.3-343.1,919-343.2,919.8-343.4z M1006.6-337.8c-4.9-0.7-8.9-3.8-10.7-8.4c-1-2.6-1.4-6.4-0.8-9.1c0.9-4.3,4-8.1,7.9-9.6
		c1.9-0.7,3.2-0.9,5.6-0.8c2.4,0.1,4,0.4,5.9,1.3l1.2,0.5v3v3l-1.2-0.7c-2-1.2-3.6-1.7-5.5-1.8c-2.6-0.1-4.4,0.5-6.1,2
		c-3,2.7-3.4,8.3-0.9,11.9c1.7,2.6,5.2,3.9,8.4,3.3c2.2-0.5,4.3-2.1,5.3-4.2c1.1-2.4,1.1-1.8,1.2-14.6c0.1-13.2,0-12.3,1.6-13.9
		c1-1,1.8-1.4,3.2-1.5l0.8-0.1l-0.1,13.7c-0.1,13.2-0.1,13.8-0.4,15.1c-1.2,5.5-4.8,9.3-9.7,10.6
		C1010.9-337.7,1008-337.6,1006.6-337.8L1006.6-337.8z M1052-337.8c-3.6-0.5-6.7-2.5-8.8-5.6c-2.7-4-3.3-10-1.4-14.5
		c1.2-2.8,3.7-5.3,6.5-6.6c2-0.9,3.2-1.1,6.4-1.1c2.5,0,3.1,0.1,4.2,0.3c3.3,0.8,6.1,2.8,7.7,5.4c0.6,1,1.3,3,1.5,4.3
		c0.1,0.6,0.2,4.2,0.2,9.2v8.2l-0.9-0.1c-0.5,0-1.2-0.2-1.6-0.4c-0.9-0.4-2.1-1.6-2.5-2.5l-0.4-0.8l-0.1-6.5
		c-0.1-6.2-0.1-6.5-0.4-7.4c-0.7-1.8-2.2-3.3-4.4-4.1c-1.3-0.5-4-0.7-5.4-0.4c-2.1,0.5-4.3,2.1-5.3,4.1c-1,1.9-1.4,4.8-0.9,6.8
		c0.8,3.1,3.2,5.5,6.2,6.2c3.1,0.7,5.7-0.3,8.2-3.3l0.7-0.9v3.5v3.5l-1.4,0.9c-0.7,0.5-1.8,1-2.3,1.2
		C1056.2-337.7,1054-337.5,1052-337.8L1052-337.8z M837.3-338.4c-3-0.6-4.9-2.5-5.8-5.8c-0.2-0.9-0.3-2-0.3-12.5v-11.5l0.4-0.9
		c0.8-1.7,2.4-2.8,4.2-3l0.9-0.1v3.4v3.4h4.7h4.7v2.7v2.7h-4.7h-4.7v7.3c0,8.3,0,8.1,1.2,8.7c0.6,0.3,0.8,0.3,4.4,0.3h3.8v2.7v2.7
		l-4.1,0C839.8-338.3,837.7-338.3,837.3-338.4L837.3-338.4z M883.6-338.4c-1.4-0.4-2.7-1.5-3.3-2.9l-0.4-0.8l0-15.2
		c0-10.3,0-15.4,0.1-16c0.3-1.4,1.1-2.6,2.3-3.4c0.6-0.4,2-0.8,2.7-0.8h0.4v11v11l1.6-0.1c1.7-0.1,2.3-0.2,3.1-0.9
		c0.2-0.2,1.5-2.2,2.9-4.5l2.5-4.2h3.2h3.2l-2.3,3.9c-2.5,4.3-3.5,5.8-4.3,6.6l-0.5,0.5l1.2,0.6c2,1,3.1,2.3,3.7,4.5
		c0.2,0.7,0.3,1.9,0.3,5.9l0.1,5.1l-1-0.1c-1.5-0.1-2.9-1-3.8-2.3c-0.6-0.9-0.9-2.2-0.9-4.3c0-2.4-0.2-3.3-1.1-4.2
		c-0.9-0.9-1.4-1-4.9-1h-3v5.9v5.9l-0.7,0C884.3-338.3,883.8-338.3,883.6-338.4L883.6-338.4z M1032.9-338.4
		c-1.4-0.4-2.7-1.5-3.3-2.9l-0.4-0.9l0-11.6l0-11.6h2.8h2.8v13.5v13.5l-0.7,0C1033.6-338.3,1033.1-338.3,1032.9-338.4L1032.9-338.4z
		 M1030.6-367.8c-0.3-0.2-0.8-0.5-1.1-0.8c-1.3-1.5-1-4.1,0.8-5c2.4-1.3,5.2,0.6,4.9,3.3c-0.1,1-0.6,1.9-1.3,2.3
		C1033-367.5,1031.4-367.4,1030.6-367.8L1030.6-367.8z"/>
</g>
</svg>
